# xmcd
#
# Track frame offsets:
#	150
#	17678
#	35695
#	51853
#	73171
#	85384
#	103063
#	119498
#	135509
#	151716
#	169244
#	187261
#	203419
#	224737
#	236950
#	254629
#	271064
#	287075
#
# Disc length: 4043
#
# Revision: 2
# Processed by: cddbd v1.5.2PL0 Copyright (c) Steve Scherf et al.
# Submitted via: kJams Pro 1.0b99
#
DISCID=170fc912
DTITLE=Various Artist - NSC 3035
DYEAR=2004
DGENRE=Karaoke
TTITLE0=Blake Shelton - The Baby
TTITLE1=Martina Mcbride - Concrete Angel
TTITLE2=Diamond Rio - I Believe
TTITLE3=Dixie Chicks - Travelin' Soldier
TTITLE4=Vince Gill - Next Big Thing
TTITLE5=Faith Hill - When The Lights Go Down
TTITLE6=Tracy Byrd - Lately (Been Dreamin' Bout Babies)
TTITLE7=Deana Carter - There's No Limit
TTITLE8=Chris Cagle - What A Beautiful Day
TTITLE9=Blake Shelton – Vocals - The Baby
TTITLE10=Martina McBride – Vocals - Concrete Angel
TTITLE11=Diamond Rio – Vocals - I Believe
TTITLE12=Dixie Chicks – Vocals - Travelin' Soldier
TTITLE13=Vince Gill – Vocals - Next Big Thing
TTITLE14=Faith Hill – Vocals - When The Lights Go Down
TTITLE15=Tracy Byrd – Vocals - Lately (Been Dreamin' 'Bout Babies)
TTITLE16=Deana Carter – Vocals - There's No Limit
TTITLE17=Chris Cagle – Vocals - What A Beautiful Day
EXTD=
EXTT0=
EXTT1=
EXTT2=
EXTT3=
EXTT4=
EXTT5=
EXTT6=
EXTT7=
EXTT8=
EXTT9=
EXTT10=
EXTT11=
EXTT12=
EXTT13=
EXTT14=
EXTT15=
EXTT16=
EXTT17=
PLAYORDER=
